<svg width="2160" height="5872" viewBox="0 0 2160 5872" fill="none" xmlns="http://www.w3.org/2000/svg">
<path d="M2677.41 4312.07C2657.57 4316.31 2637.58 4319.79 2617.39 4322.09C2334.23 4354.42 2087.69 4176.77 1901.34 3982.97C1618.01 3688.33 1431.79 3314.46 1136.9 3029.86C769.159 2674.96 212.719 2537.82 -281.507 2669.94L-662.916 3474.81L2388.89 4920.94L2677.41 4312.07Z" stroke="#A88C59" stroke-width="0.7" stroke-miterlimit="10"/>
<path d="M2898.25 4283.15C2878.41 4287.39 2858.42 4290.87 2838.21 4293.17C2555.06 4325.5 2308.54 4147.85 2122.18 3954.05C1838.84 3659.42 1652.62 3285.54 1357.72 3000.94C990.001 2646.04 433.547 2508.9 -60.679 2641.03L-442.074 3445.89L2609.66 4892.03L2898.25 4283.15Z" stroke="#A88C59" stroke-width="0.7" stroke-miterlimit="10"/>
<path d="M2274.92 469.247C2261.78 479.338 2248.17 488.956 2234.04 497.694C2035.99 620.814 1791.45 575.836 1585.73 497.839C1273 379.24 1004.27 168.031 686.484 60.9159C290.202 -72.6628 -169.347 20.8528 -488.486 291.781V1020.59H2274.92V469.247Z" stroke="#A88C59" stroke-width="0.7" stroke-miterlimit="10"/>
<path d="M2231.39 319.007C2220.76 331.766 2209.66 344.117 2197.83 355.798C2031.95 519.769 1783.61 530.097 1565.68 499.626C1234.37 453.295 925.588 306.905 591.957 272.873C175.926 230.445 -251.471 423.494 -502.584 758.413L-341.084 1469.09L2353.59 856.646L2231.39 319.007Z" stroke="#A88C59" stroke-width="0.7" stroke-miterlimit="10"/>
<path d="M3018.75 2729.18C2899.18 2692.77 2782.23 2663.86 2656.09 2642.84C2640.33 2640.21 2625.87 2638.9 2611.42 2636.27C2595.65 2634.95 2581.2 2632.33 2566.74 2631.01C2541.78 2629.7 2518.13 2627.07 2493.16 2625.76C2452.43 2623.13 2410.38 2620.5 2369.65 2623.13C2355.19 2623.13 2340.74 2621.81 2326.29 2623.13C2272.41 2625.76 2219.85 2632.33 2164.67 2640.21C2117.36 2648.09 2074 2658.61 2028.01 2671.74C1963.63 2691.45 1903.19 2713.79 1842.74 2744.01C1717.92 2805.77 1610.17 2888.55 1513.28 2986.39" stroke="#A88C59" stroke-width="0.7" stroke-miterlimit="10"/>
<path d="M2706.71 2486.09C2615.36 2475.96 2523.38 2479.9 2431.4 2487.79C2427.46 2487.79 2423.52 2489.1 2419.58 2490.42C2332.86 2500.93 2251.39 2518.01 2168.61 2544.29C1911.07 2627.07 1682.44 2779.49 1512.78 2987.4" stroke="#A88C59" stroke-width="0.7" stroke-miterlimit="10"/>
<path d="M-818.254 2631.6L-687.303 2025.12C-675.188 2039.35 -662.548 2053.11 -649.093 2066.12C-460.472 2248.64 -180.779 2257.21 64.0146 2220.26C436.211 2164.1 781.957 1995.57 1156.97 1953.25C1570.74 1906.52 1931.2 2010.15 2222.45 2306.71" stroke="#A88C59" stroke-width="0.7" stroke-miterlimit="10"/>
<path d="M-963.277 2486.58L-832.326 1880.1C-820.212 1894.33 -807.571 1908.09 -794.116 1921.1C-605.495 2103.58 -325.815 2112.19 -81.0087 2075.25C291.188 2019.08 636.934 1850.56 1011.96 1808.23C1465.41 1756.98 1933.59 1954.84 2222.95 2307.73" stroke="#A88C59" stroke-width="0.7" stroke-miterlimit="10"/>
<path d="M-175.746 5871.38L-44.7825 5264.9C-32.6808 5279.13 -20.0272 5292.89 -6.57212 5305.9C182.036 5488.38 461.755 5496.99 706.535 5460C1078.73 5403.83 1424.48 5235.31 1799.49 5192.97C2213.26 5146.25 2573.72 5249.87 2864.96 5546.43" stroke="#A88C59" stroke-width="0.7" stroke-miterlimit="10"/>
<path d="M-320.77 5726.36L-189.806 5119.88C-177.704 5134.11 -165.051 5147.87 -151.596 5160.87C37.0124 5343.36 316.705 5351.97 561.512 5315.03C933.708 5258.86 1279.45 5090.34 1654.46 5048C2107.93 4996.76 2576.11 5194.62 2865.48 5547.51" stroke="#A88C59" stroke-width="0.7" stroke-miterlimit="10"/>
</svg>
