<svg width="40" height="28" viewBox="0 0 40 28" fill="none" xmlns="http://www.w3.org/2000/svg">
<g clip-path="url(#clip0_95:2)">
<path d="M20.1134 27.9834C17.6919 27.9834 15.2554 27.9834 12.8339 27.9834C10.4124 27.9834 8.29345 27.832 6.08384 27.6806C4.69102 27.6507 3.3485 27.1553 2.27015 26.2733C1.55478 25.6306 1.06186 24.7774 0.862575 23.8367C0.56032 22.6435 0.347779 21.4293 0.226867 20.2044C0.0755238 18.2521 0 16.2694 0 14.302C0 12.3345 0.0906433 9.8979 0.211718 7.70342C0.278806 6.2603 0.585835 4.83837 1.11992 3.49604C1.41423 2.65726 1.94815 1.92339 2.65571 1.38532C3.36327 0.847256 4.21334 0.528669 5.10026 0.469172C7.00718 0.257292 8.92911 0.166515 10.836 0.121112C14.5893 0.0303066 18.4033 -0.0604624 22.0961 -0.0301937C25.5921 -0.0301937 29.0729 0.13618 32.5537 0.24212C33.3037 0.249976 34.0523 0.310656 34.7938 0.423725C35.9245 0.515826 36.9901 0.990202 37.8153 1.76867C38.6405 2.54714 39.1762 3.58342 39.3341 4.70685C39.6141 6.09989 39.7962 7.51071 39.8789 8.9292C40 11.0631 40.0756 13.2122 40.015 15.3613C39.9545 17.5104 39.8031 19.9016 39.5609 22.2172C39.4271 23.1534 39.1463 24.0626 38.7287 24.9111C38.3729 25.6735 37.8124 26.3219 37.1096 26.7843C36.4067 27.2466 35.5892 27.5045 34.7483 27.5293C32.5539 27.7261 30.3291 27.832 28.1195 27.8774C25.471 27.8774 22.8225 27.8774 20.1588 27.8774L20.1134 27.9834ZM15.8153 19.8715L27.5747 13.4394L15.8153 6.99215V19.8715Z" fill="#AB8F59"/>
</g>
<defs>
<clipPath id="clip0_95:2">
<rect width="40" height="27.9834" fill="white"/>
</clipPath>
</defs>
</svg>
